<svg width="48" height="48" viewBox="0 0 48 48" fill="none" xmlns="http://www.w3.org/2000/svg">
<g clip-path="url(#clip0_266_646)">
<path d="M19.59 13.4097C20.15 13.9697 20.16 14.8897 19.6 15.4597L12.85 22.2297H38.56C39.36 22.2297 40 22.8797 40 23.6797C40 24.4797 39.35 25.1197 38.56 25.1197H12.86L19.62 31.8897C20.17 32.4597 20.17 33.3697 19.61 33.9397C19.05 34.4997 18.13 34.4897 17.58 33.9297L8.41 24.6897C8.28 24.5597 8.18 24.3997 8.11 24.2297C8.04 24.0597 8 23.8697 8 23.6797C8 23.2997 8.15 22.9397 8.41 22.6697L17.57 13.4397C18.11 12.8697 19 12.8497 19.57 13.3897C19.57 13.3897 19.58 13.3997 19.59 13.4097Z" fill="white"/>
</g>
<defs>
<clipPath id="clip0_266_646">
<rect width="32.01" height="21.34" fill="white" transform="translate(8 13)"/>
</clipPath>
</defs>
</svg>
