<svg width="40" height="40" viewBox="0 0 40 40" fill="none" xmlns="http://www.w3.org/2000/svg">
<circle opacity="0.2" cx="20" cy="20" r="20" fill="black"/>
<path d="M27.5272 28.5711C25.6411 28.5711 23.7665 28.1073 21.9036 27.1797C20.0406 26.2521 18.367 25.0462 16.8828 23.562C15.3987 22.0778 14.1928 20.4042 13.2651 18.5413C12.3375 16.6783 11.8737 14.8037 11.8737 12.9176C11.8737 12.6238 11.9742 12.3765 12.1752 12.1755C12.3762 11.9745 12.6235 11.874 12.9173 11.874H16.1639C16.3804 11.874 16.5698 11.9475 16.7321 12.0943C16.8944 12.2412 16.9988 12.4383 17.0452 12.6857L17.6713 15.6077C17.7022 15.8241 17.6984 16.0212 17.6597 16.199C17.6211 16.3768 17.5399 16.5276 17.4162 16.6512L15.0972 18.9935C15.963 20.4313 16.9331 21.6836 18.0076 22.7503C19.0821 23.8171 20.2996 24.7215 21.6601 25.4636L23.8632 23.1909C24.0178 23.0209 24.1955 22.9011 24.3965 22.8315C24.5975 22.7619 24.7985 22.7503 24.9995 22.7967L27.7591 23.3996C27.991 23.446 28.1843 23.562 28.3389 23.7475C28.4935 23.933 28.5708 24.1495 28.5708 24.3968V27.5275C28.5708 27.8213 28.4703 28.0686 28.2693 28.2696C28.0683 28.4706 27.821 28.5711 27.5272 28.5711Z" fill="white"/>
</svg>
