<svg width="40" height="40" viewBox="0 0 40 40" fill="none" xmlns="http://www.w3.org/2000/svg">
<circle opacity="0.2" cx="20" cy="20" r="20" fill="black"/>
<path d="M23.2293 12.6315L22.703 9.9999L25.3346 8.94727L23.2293 12.6315Z" fill="white"/>
<path d="M14.9135 10.5261L15.3346 8.27042L13.2293 7.36816L14.9135 10.5261Z" fill="white"/>
<path d="M19.0188 11.0523L17.4398 6.31543L19.5451 6.84175L19.0188 11.0523Z" fill="white"/>
<path d="M10.7032 16.0995L10.7616 16.1588C10.2946 16.1351 9.81602 16.313 9.46581 16.6689C8.78874 17.357 8.78874 18.4721 9.46581 19.1601L10.2246 19.9312C9.75765 19.9075 9.27903 20.0855 8.92882 20.4414C8.25175 21.1294 8.25175 22.2445 8.92882 22.9326L15.8279 29.9436C17.2171 31.3553 19.0732 32.1383 21.0461 32.1383C21.3029 32.1383 21.5714 32.1264 21.8165 32.0908C22.4002 32.2332 22.9955 32.3043 23.5909 32.3043C25.5171 32.3043 27.4432 31.557 28.9141 30.0622C29.953 29.0064 30.6535 27.6896 30.957 26.2424C31.1321 25.4238 31.1671 24.5934 31.0737 23.763C30.5601 19.7414 26.7078 16.0876 26.556 15.9334C25.7038 15.0911 25.0968 14.7353 24.1746 15.0793C23.8827 15.186 23.6259 15.3759 23.4275 15.6131C22.8438 15.1505 22.3302 14.9844 21.6414 15.2335L18.9331 12.4576C18.2444 11.7576 17.1237 11.7576 16.4466 12.4576C16.4116 12.4931 16.3883 12.5287 16.3533 12.5643C15.6762 11.9949 14.6722 12.0423 14.0302 12.683C13.9485 12.766 13.8668 12.8609 13.8084 12.9677C13.5282 13.0507 13.2714 13.2049 13.0496 13.4185C13.0263 13.4422 13.0146 13.454 13.0029 13.4778C12.6994 13.2405 12.3259 13.0982 11.9406 13.0982C11.4737 13.0982 11.0418 13.2761 10.7149 13.6083C10.0378 14.2963 10.0378 15.4114 10.7149 16.0995H10.7032ZM9.79267 18.828C9.30238 18.3297 9.30238 17.4993 9.79267 17.0011C10.2596 16.5266 10.9951 16.5028 11.497 16.918C11.1118 17.6061 11.2052 18.484 11.7772 19.0652L12.5593 19.8601C12.0807 19.8363 11.6254 20.0143 11.2752 20.3346L9.79267 18.828ZM16.1548 29.6114L9.25569 22.6004C8.76539 22.1022 8.76539 21.2718 9.25569 20.7735C9.7343 20.2871 10.4814 20.2753 10.9834 20.7142C10.8083 20.9989 10.7149 21.3192 10.7149 21.6514C10.7149 22.1259 10.9017 22.5767 11.2285 22.9207L18.2677 30.0741C18.9448 30.7622 19.7036 31.2841 20.5324 31.6519C18.8748 31.5333 17.3338 30.8215 16.1548 29.6114ZM23.1707 16.0165C23.0773 16.2181 23.0306 16.4317 23.0072 16.6571L21.9916 15.625C22.3768 15.5419 22.7037 15.6487 23.159 16.0283L23.1707 16.0165ZM16.0964 12.9677C15.968 13.2405 15.9097 13.5252 15.9213 13.8218L15.5361 13.4303C15.2443 13.1337 14.859 12.9558 14.4738 12.9202C14.9524 12.5406 15.6295 12.5643 16.0964 12.9795V12.9677ZM13.3648 13.7506C13.8668 13.2405 14.6956 13.2405 15.2092 13.7506L21.2328 19.8719C21.3262 19.9668 21.4663 19.9668 21.5597 19.8719C21.6064 19.8245 21.6297 19.7652 21.6297 19.7058C21.6297 19.6465 21.6064 19.5872 21.5597 19.5398L16.7735 14.6759C16.2715 14.1658 16.2715 13.3236 16.7735 12.8016C17.2871 12.2915 18.1043 12.2915 18.6179 12.8016L23.2757 17.5705L26.3342 21.082C26.4159 21.1769 26.5677 21.1887 26.6611 21.1057C26.7545 21.0226 26.7661 20.8684 26.6844 20.7735L23.5559 17.179C23.4508 16.8587 23.4742 16.5147 23.6143 16.2063C23.766 15.886 24.0228 15.6487 24.3497 15.5182C24.9917 15.2809 25.412 15.447 26.2642 16.2774C26.2992 16.313 30.1632 19.9787 30.6418 23.8223C30.7352 24.6053 30.7001 25.3764 30.5367 26.1475C30.2565 27.5117 29.5911 28.7455 28.6222 29.7301C25.8673 32.5297 21.3846 32.5297 18.6296 29.7301L11.5904 22.5767C11.3453 22.3276 11.2052 21.9954 11.2052 21.6395C11.2052 21.2836 11.3453 20.9515 11.5904 20.7023C11.8356 20.4532 12.1624 20.3109 12.5126 20.3109C12.8628 20.3109 13.1897 20.4532 13.4348 20.7023L16.9369 24.2612C17.0303 24.3561 17.1704 24.3561 17.2638 24.2612C17.3572 24.1663 17.3572 24.024 17.2638 23.9291L12.1507 18.7331C11.6488 18.223 11.6488 17.3807 12.1507 16.8587C12.6527 16.3486 13.4699 16.3486 13.9835 16.8587L19.1082 22.0666C19.2016 22.1615 19.3417 22.1615 19.4351 22.0666C19.5285 21.9717 19.5285 21.8293 19.4351 21.7344L14.322 16.5384L13.4348 15.6368C12.9212 15.1149 12.9212 14.2845 13.4348 13.7625L13.3648 13.7506ZM11.9289 13.5727C12.2208 13.5727 12.501 13.6794 12.7344 13.8574C12.3842 14.5336 12.4893 15.3877 13.0496 15.9453L13.1197 16.0165C12.641 15.9927 12.1507 16.1707 11.7889 16.5384L11.0418 15.7792C10.5515 15.2809 10.5515 14.4505 11.0418 13.9523C11.2869 13.7032 11.6021 13.5727 11.9406 13.5727H11.9289Z" fill="white"/>
<path d="M10.7032 16.0995V15.8495H10.1065L10.525 16.2748L10.7032 16.0995ZM10.7616 16.1588L10.7489 16.4085L11.3901 16.4411L10.9398 15.9835L10.7616 16.1588ZM9.46581 16.6689L9.28762 16.4936L9.46581 16.6689ZM9.46581 19.1601L9.28762 19.3355L9.28762 19.3355L9.46581 19.1601ZM10.2246 19.9312L10.2119 20.1809L10.8531 20.2135L10.4028 19.7559L10.2246 19.9312ZM8.92882 20.4414L8.75063 20.266L8.92882 20.4414ZM8.92882 22.9326L8.75063 23.1079L8.75063 23.1079L8.92882 22.9326ZM15.8279 29.9436L16.0061 29.7683L16.0061 29.7683L15.8279 29.9436ZM21.8165 32.0908L21.8757 31.8479L21.8286 31.8364L21.7806 31.8434L21.8165 32.0908ZM30.957 26.2424L30.7125 26.1901L30.7123 26.191L30.957 26.2424ZM31.0737 23.763L31.3222 23.735L31.3217 23.7313L31.0737 23.763ZM26.556 15.9334L26.7342 15.758L26.7317 15.7556L26.556 15.9334ZM24.1746 15.0793L24.2605 15.3141L24.262 15.3135L24.1746 15.0793ZM23.4275 15.6131L23.2722 15.809L23.463 15.9603L23.6192 15.7735L23.4275 15.6131ZM21.6414 15.2335L21.4625 15.4081L21.575 15.5234L21.7264 15.4686L21.6414 15.2335ZM18.9331 12.4576L19.1121 12.283L19.1113 12.2822L18.9331 12.4576ZM16.4466 12.4576L16.6248 12.6329L16.6263 12.6314L16.4466 12.4576ZM16.3533 12.5643L16.1923 12.7557L16.3693 12.9045L16.5314 12.7397L16.3533 12.5643ZM14.0302 12.683L13.8536 12.506L13.852 12.5076L14.0302 12.683ZM13.8084 12.9677L13.8794 13.2074L13.9783 13.1781L14.0278 13.0876L13.8084 12.9677ZM13.0496 13.4185L12.8762 13.2383L12.8714 13.2431L13.0496 13.4185ZM13.0029 13.4778L12.849 13.6747L13.0914 13.8642L13.2272 13.5881L13.0029 13.4778ZM10.7149 13.6083L10.8931 13.7836L10.7149 13.6083ZM10.7149 16.0995V16.3495H11.3116L10.8931 15.9241L10.7149 16.0995ZM9.79267 18.828L9.61448 19.0033L9.61448 19.0033L9.79267 18.828ZM11.497 16.918L11.7152 17.0402L11.817 16.8583L11.6564 16.7254L11.497 16.918ZM11.7772 19.0652L11.9554 18.8899L11.7772 19.0652ZM12.5593 19.8601L12.5469 20.1098L13.187 20.1415L12.7375 19.6847L12.5593 19.8601ZM11.2752 20.3346L11.097 20.5099L11.2661 20.6817L11.4439 20.5191L11.2752 20.3346ZM16.1548 29.6114L16.3339 29.437L16.333 29.4361L16.1548 29.6114ZM9.25569 22.6004L9.43388 22.4251L9.43388 22.4251L9.25569 22.6004ZM10.9834 20.7142L11.1963 20.8452L11.3071 20.6651L11.1479 20.526L10.9834 20.7142ZM11.2285 22.9207L11.0473 23.0929L11.0503 23.0961L11.2285 22.9207ZM18.2677 30.0741L18.4459 29.8988L18.4459 29.8988L18.2677 30.0741ZM20.5324 31.6519L20.5146 31.9012L20.6338 31.4234L20.5324 31.6519ZM23.1707 16.0165L23.3975 16.1215L22.9925 15.8411L23.1707 16.0165ZM23.0072 16.6571L22.829 16.8324L23.2012 17.2106L23.2559 16.6828L23.0072 16.6571ZM21.9916 15.625L21.9389 15.3806L21.4946 15.4764L21.8134 15.8003L21.9916 15.625ZM23.159 16.0283L22.9989 16.2203L23.1757 16.3678L23.3372 16.2037L23.159 16.0283ZM16.0964 12.9677H16.3464L15.8702 12.8612L16.0964 12.9677ZM15.9213 13.8218L15.7431 13.9971L16.1966 14.4579L16.1711 13.812L15.9213 13.8218ZM15.5361 13.4303L15.7143 13.255L15.5361 13.4303ZM14.4738 12.9202L14.3184 12.7243L13.8299 13.1118L14.4508 13.1692L14.4738 12.9202ZM16.0964 12.9795L15.9303 13.1664L16.3464 13.5364V12.9795H16.0964ZM13.3648 13.7506L13.1866 13.5753L12.8503 13.917L13.3231 13.9971L13.3648 13.7506ZM15.2092 13.7506L15.3874 13.5753L15.3854 13.5732L15.2092 13.7506ZM21.2328 19.8719L21.0546 20.0473L21.2328 19.8719ZM21.5597 19.8719L21.3815 19.6966L21.5597 19.8719ZM21.5597 19.5398L21.7379 19.3644L21.7379 19.3644L21.5597 19.5398ZM16.7735 14.6759L16.5953 14.8513L16.5953 14.8513L16.7735 14.6759ZM16.7735 12.8016L16.5973 12.6241L16.5933 12.6283L16.7735 12.8016ZM18.6179 12.8016L18.7968 12.6269L18.7941 12.6242L18.6179 12.8016ZM23.2757 17.5705L23.4642 17.4063L23.4595 17.4009L23.4546 17.3958L23.2757 17.5705ZM26.3342 21.082L26.5237 20.9188L26.5227 20.9178L26.3342 21.082ZM26.6844 20.7735L26.8739 20.6104L26.873 20.6094L26.6844 20.7735ZM23.5559 17.179L23.3183 17.2569L23.3341 17.305L23.3673 17.3432L23.5559 17.179ZM23.6143 16.2063L23.3883 16.0992L23.3866 16.1029L23.6143 16.2063ZM24.3497 15.5182L24.263 15.2836L24.257 15.286L24.3497 15.5182ZM26.2642 16.2774L26.4424 16.1021L26.4386 16.0984L26.2642 16.2774ZM30.6418 23.8223L30.89 23.7927L30.8899 23.7914L30.6418 23.8223ZM30.5367 26.1475L30.2921 26.0956L30.2918 26.0972L30.5367 26.1475ZM28.6222 29.7301L28.444 29.5547L28.6222 29.7301ZM18.6296 29.7301L18.4514 29.9054L18.4514 29.9054L18.6296 29.7301ZM11.5904 22.5767L11.7686 22.4013L11.7686 22.4013L11.5904 22.5767ZM13.4348 20.7023L13.2567 20.8777L13.2567 20.8777L13.4348 20.7023ZM16.9369 24.2612L17.1151 24.0859L17.1151 24.0859L16.9369 24.2612ZM17.2638 23.9291L17.442 23.7537L17.442 23.7537L17.2638 23.9291ZM12.1507 18.7331L11.9726 18.9084L11.9726 18.9084L12.1507 18.7331ZM12.1507 16.8587L11.9725 16.6834L11.9705 16.6854L12.1507 16.8587ZM13.9835 16.8587L14.1617 16.6834L14.1597 16.6813L13.9835 16.8587ZM19.1082 22.0666L19.2864 21.8912L19.2864 21.8912L19.1082 22.0666ZM19.4351 21.7344L19.6133 21.5591L19.6133 21.5591L19.4351 21.7344ZM14.322 16.5384L14.1438 16.7138L14.1438 16.7138L14.322 16.5384ZM13.4348 15.6368L13.613 15.4615L13.4348 15.6368ZM13.4348 13.7625L13.613 13.9378L13.9494 13.5961L13.4766 13.516L13.4348 13.7625ZM12.7344 13.8574L12.9564 13.9724L13.053 13.7859L12.886 13.6586L12.7344 13.8574ZM13.0496 15.9453L13.2278 15.7699L13.226 15.7681L13.0496 15.9453ZM13.1197 16.0165L13.1073 16.2661L13.7473 16.2979L13.2979 15.8411L13.1197 16.0165ZM11.7889 16.5384L11.6107 16.7138L11.7889 16.8949L11.9671 16.7138L11.7889 16.5384ZM11.0418 15.7792L11.2199 15.6038L11.2199 15.6038L11.0418 15.7792ZM10.525 16.2748L10.5834 16.3342L10.9398 15.9835L10.8814 15.9241L10.525 16.2748ZM10.7743 15.9091C10.2365 15.8818 9.68828 16.0864 9.28762 16.4936L9.644 16.8443C9.94376 16.5396 10.3528 16.3884 10.7489 16.4085L10.7743 15.9091ZM9.28762 16.4936C8.5148 17.2789 8.5148 18.5501 9.28762 19.3355L9.644 18.9848C9.06268 18.394 9.06268 17.435 9.644 16.8443L9.28762 16.4936ZM9.28762 19.3355L10.0464 20.1066L10.4028 19.7559L9.644 18.9848L9.28762 19.3355ZM10.2373 19.6816C9.69953 19.6542 9.15129 19.8588 8.75063 20.266L9.10702 20.6167C9.40677 20.3121 9.81577 20.1608 10.2119 20.1809L10.2373 19.6816ZM8.75063 20.266C7.97782 21.0514 7.97782 22.3226 8.75063 23.1079L9.10702 22.7572C8.52569 22.1665 8.52569 21.2075 9.10702 20.6167L8.75063 20.266ZM8.75063 23.1079L15.6497 30.119L16.0061 29.7683L9.10702 22.7572L8.75063 23.1079ZM15.6497 30.119C17.0855 31.578 19.0056 32.3883 21.0461 32.3883V31.8883C19.1408 31.8883 17.3487 31.1326 16.0061 29.7683L15.6497 30.119ZM21.0461 32.3883C21.3093 32.3883 21.5909 32.3762 21.8524 32.3382L21.7806 31.8434C21.5518 31.8766 21.2964 31.8883 21.0461 31.8883V32.3883ZM21.7573 32.3337C22.3604 32.4808 22.9756 32.5543 23.5909 32.5543V32.0543C23.0155 32.0543 22.44 31.9856 21.8757 31.8479L21.7573 32.3337ZM23.5909 32.5543C25.582 32.5543 27.573 31.7815 29.0923 30.2376L28.7359 29.8869C27.3134 31.3324 25.4521 32.0543 23.5909 32.0543V32.5543ZM29.0923 30.2376C30.1652 29.1473 30.8884 27.7873 31.2016 26.2937L30.7123 26.191C30.4185 27.592 29.7409 28.8656 28.7359 29.8869L29.0923 30.2376ZM31.2014 26.2947C31.3824 25.4486 31.4184 24.591 31.3221 23.7351L30.8253 23.7909C30.9158 24.5958 30.8817 25.399 30.7125 26.1901L31.2014 26.2947ZM31.3217 23.7313C31.057 21.6586 29.9367 19.6988 28.8812 18.2507C27.8222 16.7978 26.8078 15.8329 26.7342 15.7581L26.3778 16.1088C26.456 16.1882 27.4436 17.1272 28.4771 18.5452C29.5141 19.968 30.5768 21.8458 30.8257 23.7947L31.3217 23.7313ZM26.7317 15.7556C26.3026 15.3314 25.908 15.0009 25.4854 14.8298C25.0464 14.652 24.5989 14.6541 24.0872 14.845L24.262 15.3135C24.6725 15.1604 24.9896 15.1684 25.2977 15.2932C25.6222 15.4246 25.9573 15.6931 26.3803 16.1112L26.7317 15.7556ZM24.0887 14.8445C23.7518 14.9677 23.4596 15.1851 23.2357 15.4527L23.6192 15.7735C23.7923 15.5666 24.0137 15.4044 24.2605 15.3141L24.0887 14.8445ZM23.5828 15.4172C23.2761 15.1741 22.9685 14.9931 22.6316 14.9131C22.2895 14.832 21.939 14.86 21.5564 14.9984L21.7264 15.4686C22.0326 15.3579 22.2832 15.3444 22.5161 15.3996C22.7541 15.4561 22.9952 15.5895 23.2722 15.809L23.5828 15.4172ZM21.8204 15.0589L19.1121 12.283L18.7542 12.6321L21.4625 15.4081L21.8204 15.0589ZM19.1113 12.2822C18.3255 11.4836 17.0431 11.4814 16.267 12.2837L16.6263 12.6314C17.2043 12.0339 18.1633 12.0317 18.7549 12.6329L19.1113 12.2822ZM16.2684 12.2822C16.2418 12.3092 16.2205 12.3355 16.2066 12.3524C16.1913 12.3711 16.1835 12.3804 16.1751 12.389L16.5314 12.7397C16.5581 12.7126 16.5794 12.6863 16.5933 12.6695C16.6086 12.6507 16.6164 12.6415 16.6248 12.6329L16.2684 12.2822ZM16.5142 12.373C15.7353 11.718 14.5851 11.7762 13.8536 12.506L14.2068 12.8599C14.7594 12.3085 15.617 12.2718 16.1923 12.7557L16.5142 12.373ZM13.852 12.5076C13.7636 12.5975 13.6635 12.7115 13.589 12.8477L14.0278 13.0876C14.07 13.0103 14.1334 12.9345 14.2084 12.8583L13.852 12.5076ZM13.7374 12.728C13.4156 12.8233 13.1244 12.9995 12.8762 13.2384L13.223 13.5986C13.4185 13.4104 13.6409 13.2781 13.8794 13.2074L13.7374 12.728ZM12.8714 13.2431C12.8493 13.2656 12.8102 13.3032 12.7786 13.3674L13.2272 13.5881C13.2264 13.5898 13.2247 13.593 13.2221 13.5971C13.2194 13.6012 13.2169 13.6045 13.2152 13.6066C13.2138 13.6084 13.2134 13.6086 13.2157 13.6062C13.2182 13.6035 13.2215 13.6002 13.2278 13.5938L12.8714 13.2431ZM13.1569 13.2808C12.8142 13.0129 12.3875 12.8482 11.9406 12.8482V13.3482C12.2642 13.3482 12.5846 13.4681 12.849 13.6747L13.1569 13.2808ZM11.9406 12.8482C11.4079 12.8482 10.9114 13.0522 10.5367 13.4329L10.8931 13.7836C11.1721 13.5001 11.5395 13.3482 11.9406 13.3482V12.8482ZM10.5367 13.4329C9.76388 14.2183 9.76388 15.4895 10.5367 16.2748L10.8931 15.9241C10.3118 15.3334 10.3118 14.3744 10.8931 13.7836L10.5367 13.4329ZM10.7149 15.8495H10.7032V16.3495H10.7149V15.8495ZM9.97087 18.6526C9.57632 18.2517 9.57632 17.5774 9.97087 17.1764L9.61448 16.8257C9.02844 17.4213 9.02844 18.4078 9.61448 19.0033L9.97087 18.6526ZM9.97087 17.1764C10.3445 16.7968 10.9331 16.776 11.3377 17.1107L11.6564 16.7254C11.057 16.2297 10.1748 16.2564 9.61448 16.8257L9.97087 17.1764ZM11.2789 16.7959C10.8415 17.5771 10.9459 18.5769 11.599 19.2406L11.9554 18.8899C11.4644 18.391 11.3821 17.6351 11.7152 17.0402L11.2789 16.7959ZM11.599 19.2406L12.3811 20.0354L12.7375 19.6847L11.9554 18.8899L11.599 19.2406ZM12.5717 19.6104C12.0217 19.5831 11.5024 19.788 11.1065 20.1501L11.4439 20.5191C11.7485 20.2405 12.1397 20.0896 12.5469 20.1098L12.5717 19.6104ZM11.4534 20.1592L9.97087 18.6526L9.61448 19.0033L11.097 20.5099L11.4534 20.1592ZM16.333 29.4361L9.43388 22.4251L9.07749 22.7758L15.9766 29.7868L16.333 29.4361ZM9.43388 22.4251C9.03933 22.0241 9.03933 21.3498 9.43388 20.9489L9.07749 20.5982C8.49146 21.1937 8.49146 22.1802 9.07749 22.7758L9.43388 22.4251ZM9.43388 20.9489C9.81687 20.5597 10.4135 20.548 10.8188 20.9024L11.1479 20.526C10.5494 20.0026 9.65174 20.0146 9.07749 20.5982L9.43388 20.9489ZM10.7704 20.5832C10.5719 20.906 10.4649 21.2714 10.4649 21.6514H10.9649C10.9649 21.367 11.0446 21.0918 11.1963 20.8452L10.7704 20.5832ZM10.4649 21.6514C10.4649 22.1924 10.678 22.7042 11.0473 23.0929L11.4098 22.7485C11.1254 22.4492 10.9649 22.0594 10.9649 21.6514H10.4649ZM11.0503 23.0961L18.0895 30.2495L18.4459 29.8988L11.4067 22.7454L11.0503 23.0961ZM18.0895 30.2495C18.7883 30.9595 19.573 31.4997 20.431 31.8804L20.6338 31.4234C19.8342 31.0686 19.1013 30.5648 18.4459 29.8988L18.0895 30.2495ZM20.5503 31.4025C18.9538 31.2883 17.4702 30.6032 16.3339 29.437L15.9757 29.7859C17.1974 31.0397 18.7957 31.7782 20.5146 31.9012L20.5503 31.4025ZM22.9438 15.9114C22.8353 16.1458 22.7837 16.3883 22.7586 16.6313L23.2559 16.6828C23.2774 16.475 23.3193 16.2905 23.3975 16.1215L22.9438 15.9114ZM23.1854 16.4817L22.1698 15.4496L21.8134 15.8003L22.829 16.8324L23.1854 16.4817ZM22.0443 15.8694C22.1967 15.8365 22.3283 15.842 22.4683 15.8897C22.6145 15.9397 22.783 16.0403 22.9989 16.2203L23.3191 15.8363C23.0797 15.6367 22.8571 15.4942 22.6298 15.4166C22.3962 15.3368 22.1718 15.3304 21.9389 15.3806L22.0443 15.8694ZM23.3372 16.2037L23.3488 16.1918L22.9925 15.8411L22.9808 15.853L23.3372 16.2037ZM15.8702 12.8612C15.725 13.1698 15.6582 13.4943 15.6715 13.8316L16.1711 13.812C16.1611 13.5561 16.211 13.3113 16.3226 13.0741L15.8702 12.8612ZM16.0995 13.6465L15.7143 13.255L15.3579 13.6057L15.7431 13.9971L16.0995 13.6465ZM15.7143 13.255C15.3813 12.9165 14.9412 12.7123 14.4968 12.6713L14.4508 13.1692C14.7769 13.1993 15.1072 13.3509 15.3579 13.6057L15.7143 13.255ZM14.6292 13.1161C15.0099 12.8141 15.5515 12.8295 15.9303 13.1664L16.2626 12.7927C15.7075 12.2991 14.8949 12.2671 14.3184 12.7243L14.6292 13.1161ZM16.3464 12.9795V12.9677H15.8464V12.9795H16.3464ZM13.543 13.926C13.9459 13.5165 14.6158 13.5136 15.0331 13.928L15.3854 13.5732C14.7754 12.9674 13.7876 12.9645 13.1866 13.5753L13.543 13.926ZM15.031 13.926L21.0546 20.0473L21.411 19.6966L15.3874 13.5753L15.031 13.926ZM21.0546 20.0473C21.246 20.2417 21.5465 20.2417 21.7379 20.0473L21.3815 19.6966C21.3802 19.6979 21.3809 19.6968 21.384 19.6955C21.3871 19.6941 21.3914 19.6931 21.3963 19.6931C21.4012 19.6931 21.4054 19.6941 21.4085 19.6955C21.4117 19.6968 21.4123 19.6979 21.411 19.6966L21.0546 20.0473ZM21.7379 20.0473C21.8295 19.9541 21.8797 19.8322 21.8797 19.7058H21.3797C21.3797 19.7026 21.3804 19.6997 21.3813 19.6976C21.3821 19.6955 21.3828 19.6953 21.3815 19.6966L21.7379 20.0473ZM21.8797 19.7058C21.8797 19.5794 21.8295 19.4576 21.7379 19.3644L21.3815 19.7151C21.3828 19.7164 21.3821 19.7162 21.3813 19.7141C21.3804 19.712 21.3797 19.7091 21.3797 19.7058H21.8797ZM21.7379 19.3644L16.9517 14.5006L16.5953 14.8513L21.3815 19.7151L21.7379 19.3644ZM16.9517 14.5006C16.5466 14.0889 16.5437 13.4012 16.9537 12.9749L16.5933 12.6283C15.9994 13.2459 15.9965 14.2428 16.5953 14.8513L16.9517 14.5006ZM16.9497 12.979C17.3658 12.5657 18.0256 12.5657 18.4418 12.979L18.7941 12.6242C18.183 12.0173 17.2085 12.0173 16.5973 12.6242L16.9497 12.979ZM18.4391 12.9763L23.0969 17.7452L23.4546 17.3958L18.7968 12.6269L18.4391 12.9763ZM23.0872 17.7347L26.1457 21.2462L26.5227 20.9178L23.4642 17.4063L23.0872 17.7347ZM26.1448 21.2451C26.3152 21.443 26.6267 21.4707 26.8272 21.2925L26.4949 20.9189C26.5039 20.9109 26.5112 20.9112 26.5118 20.9112C26.5122 20.9113 26.5175 20.9117 26.5237 20.9188L26.1448 21.2451ZM26.8272 21.2925C27.0207 21.1204 27.0463 20.8106 26.8739 20.6104L26.495 20.9366C26.4915 20.9326 26.4899 20.9289 26.4894 20.9272C26.4889 20.9256 26.4891 20.9253 26.4891 20.9261C26.489 20.9269 26.4888 20.9269 26.4893 20.926C26.4898 20.9249 26.4914 20.922 26.4949 20.9189L26.8272 21.2925ZM26.873 20.6094L23.7445 17.0149L23.3673 17.3432L26.4958 20.9376L26.873 20.6094ZM23.7934 17.1011C23.7087 16.8428 23.7266 16.5634 23.8419 16.3096L23.3866 16.1029C23.2217 16.466 23.1929 16.8746 23.3183 17.2569L23.7934 17.1011ZM23.8402 16.3133C23.9644 16.0512 24.1729 15.858 24.4424 15.7504L24.257 15.286C23.8727 15.4394 23.5677 15.7207 23.3883 16.0992L23.8402 16.3133ZM24.4363 15.7527C24.7156 15.6495 24.9156 15.6425 25.136 15.7299C25.3779 15.8257 25.6656 16.0432 26.0897 16.4565L26.4386 16.0984C26.0105 15.6812 25.662 15.4005 25.3202 15.265C24.9569 15.1211 24.6258 15.1497 24.263 15.2837L24.4363 15.7527ZM26.086 16.4528C26.1057 16.4729 27.0674 17.3856 28.0852 18.7699C29.1072 20.1601 30.1624 21.9954 30.3937 23.8532L30.8899 23.7914C30.6426 21.8056 29.5264 19.8862 28.488 18.4738C27.9664 17.7643 27.4591 17.1756 27.0799 16.7619C26.8902 16.5549 26.7323 16.3915 26.6204 16.2784C26.5645 16.2218 26.52 16.1778 26.4888 16.1473C26.4733 16.132 26.461 16.1201 26.4525 16.1118C26.4412 16.1009 26.4407 16.1004 26.4424 16.1021L26.086 16.4528ZM30.3935 23.8519C30.4837 24.6077 30.4499 25.3512 30.2921 26.0956L30.7813 26.1993C30.9504 25.4015 30.9867 24.6029 30.89 23.7927L30.3935 23.8519ZM30.2918 26.0972C30.0215 27.4135 29.3796 28.604 28.444 29.5547L28.8004 29.9054C29.8027 28.8869 30.4916 27.6098 30.7816 26.1977L30.2918 26.0972ZM28.444 29.5547C25.787 32.2549 21.4648 32.2549 18.8078 29.5547L18.4514 29.9054C21.3043 32.8046 25.9475 32.8046 28.8004 29.9054L28.444 29.5547ZM18.8078 29.5547L11.7686 22.4013L11.4122 22.752L18.4514 29.9054L18.8078 29.5547ZM11.7686 22.4013C11.5685 22.198 11.4552 21.9285 11.4552 21.6395H10.9552C10.9552 22.0623 11.122 22.4571 11.4122 22.752L11.7686 22.4013ZM11.4552 21.6395C11.4552 21.3506 11.5685 21.081 11.7686 20.8777L11.4122 20.527C11.122 20.8219 10.9552 21.2167 10.9552 21.6395H11.4552ZM11.7686 20.8777C11.9686 20.6745 12.232 20.5609 12.5126 20.5609V20.0609C12.0929 20.0609 11.7025 20.232 11.4122 20.527L11.7686 20.8777ZM12.5126 20.5609C12.7933 20.5609 13.0567 20.6745 13.2567 20.8777L13.613 20.527C13.3227 20.232 12.9324 20.0609 12.5126 20.0609V20.5609ZM13.2567 20.8777L16.7587 24.4366L17.1151 24.0859L13.613 20.527L13.2567 20.8777ZM16.7587 24.4366C16.9501 24.631 17.2507 24.631 17.442 24.4366L17.0856 24.0859C17.0843 24.0872 17.085 24.0861 17.0881 24.0848C17.0912 24.0835 17.0955 24.0824 17.1004 24.0824C17.1053 24.0824 17.1095 24.0835 17.1126 24.0848C17.1158 24.0861 17.1164 24.0872 17.1151 24.0859L16.7587 24.4366ZM17.442 24.4366C17.6311 24.2444 17.6311 23.9459 17.442 23.7537L17.0856 24.1044C17.0869 24.1057 17.0863 24.1055 17.0854 24.1034C17.0845 24.1013 17.0838 24.0984 17.0838 24.0952C17.0838 24.0919 17.0845 24.089 17.0854 24.087C17.0863 24.0848 17.0869 24.0846 17.0856 24.0859L17.442 24.4366ZM17.442 23.7537L12.3289 18.5577L11.9726 18.9084L17.0856 24.1044L17.442 23.7537ZM12.3289 18.5577C11.9238 18.146 11.921 17.4583 12.3309 17.032L11.9705 16.6854C11.3766 17.3031 11.3738 18.2999 11.9726 18.9084L12.3289 18.5577ZM12.3289 17.0341C12.7318 16.6246 13.3901 16.6217 13.8073 17.0361L14.1597 16.6813C13.5497 16.0755 12.5736 16.0726 11.9726 16.6834L12.3289 17.0341ZM13.8053 17.0341L18.93 22.2419L19.2864 21.8912L14.1617 16.6834L13.8053 17.0341ZM18.93 22.2419C19.1214 22.4364 19.4219 22.4364 19.6133 22.2419L19.2569 21.8912C19.2556 21.8925 19.2563 21.8915 19.2594 21.8901C19.2625 21.8888 19.2668 21.8878 19.2717 21.8878C19.2766 21.8878 19.2808 21.8888 19.2839 21.8901C19.2871 21.8915 19.2877 21.8925 19.2864 21.8912L18.93 22.2419ZM19.6133 22.2419C19.8024 22.0497 19.8024 21.7513 19.6133 21.5591L19.2569 21.9098C19.2582 21.9111 19.2575 21.9108 19.2567 21.9087C19.2558 21.9066 19.2551 21.9038 19.2551 21.9005C19.2551 21.8972 19.2558 21.8944 19.2567 21.8923C19.2575 21.8902 19.2582 21.8899 19.2569 21.8912L19.6133 22.2419ZM19.6133 21.5591L14.5002 16.3631L14.1438 16.7138L19.2569 21.9098L19.6133 21.5591ZM14.5002 16.3631L13.613 15.4615L13.2567 15.8122L14.1438 16.7138L14.5002 16.3631ZM13.613 15.4615C13.1951 15.0368 13.1951 14.3625 13.613 13.9378L13.2567 13.5871C12.6473 14.2064 12.6473 15.1929 13.2567 15.8122L13.613 15.4615ZM13.4766 13.516L13.4066 13.5041L13.3231 13.9971L13.3931 14.009L13.4766 13.516ZM11.9289 13.8227C12.1591 13.8227 12.3871 13.907 12.5829 14.0562L12.886 13.6586C12.6148 13.4519 12.2825 13.3227 11.9289 13.3227V13.8227ZM12.5124 13.7424C12.1145 14.5107 12.2318 15.4842 12.8733 16.1225L13.226 15.7681C12.7468 15.2913 12.6539 14.5565 12.9564 13.9724L12.5124 13.7424ZM12.8714 16.1206L12.9415 16.1918L13.2979 15.8411L13.2278 15.7699L12.8714 16.1206ZM13.132 15.7668C12.584 15.7396 12.0238 15.9432 11.6107 16.3631L11.9671 16.7138C12.2776 16.3981 12.698 16.2459 13.1073 16.2661L13.132 15.7668ZM11.9671 16.3631L11.2199 15.6038L10.8636 15.9545L11.6107 16.7138L11.9671 16.3631ZM11.2199 15.6038C10.8254 15.2029 10.8254 14.5286 11.2199 14.1276L10.8636 13.7769C10.2775 14.3725 10.2775 15.359 10.8636 15.9545L11.2199 15.6038ZM11.2199 14.1276C11.4184 13.926 11.6695 13.8227 11.9406 13.8227V13.3227C11.5347 13.3227 11.1554 13.4803 10.8636 13.7769L11.2199 14.1276ZM11.9406 13.3227H11.9289V13.8227H11.9406V13.3227Z" fill="white"/>
</svg>
