<svg width="24" height="24" viewBox="0 0 24 24" fill="none" xmlns="http://www.w3.org/2000/svg">
<path d="M4.5 21.9746C4.1 21.9746 3.75 21.8246 3.45 21.5246C3.15 21.2246 3 20.8746 3 20.4746V6.14961C3 5.93711 3.07229 5.75898 3.21688 5.61523C3.36148 5.47148 3.54064 5.39961 3.75438 5.39961C3.96813 5.39961 4.14583 5.47148 4.2875 5.61523C4.42917 5.75898 4.5 5.93711 4.5 6.14961V20.4746H15.6C15.8125 20.4746 15.9906 20.5469 16.1344 20.6915C16.2781 20.8361 16.35 21.0153 16.35 21.229C16.35 21.4427 16.2781 21.6204 16.1344 21.7621C15.9906 21.9038 15.8125 21.9746 15.6 21.9746H4.5ZM7.5 18.9746C7.1 18.9746 6.75 18.8246 6.45 18.5246C6.15 18.2246 6 17.8746 6 17.4746V3.47461C6 3.07461 6.15 2.72461 6.45 2.42461C6.75 2.12461 7.1 1.97461 7.5 1.97461H18.5C18.9 1.97461 19.25 2.12461 19.55 2.42461C19.85 2.72461 20 3.07461 20 3.47461V17.4746C20 17.8746 19.85 18.2246 19.55 18.5246C19.25 18.8246 18.9 18.9746 18.5 18.9746H7.5ZM7.5 17.4746H18.5V3.47461H7.5V17.4746Z" fill="white"/>
</svg>
