<svg width="24" height="24" viewBox="0 0 24 24" fill="none" xmlns="http://www.w3.org/2000/svg">
<path d="M9.45005 17.5504C9.35005 17.5504 9.25838 17.5337 9.17505 17.5004C9.09172 17.4671 9.00838 17.4087 8.92505 17.3254L4.40005 12.8004C4.25005 12.6504 4.17505 12.4671 4.17505 12.2504C4.17505 12.0337 4.25005 11.8504 4.40005 11.7004C4.55005 11.5504 4.72505 11.4754 4.92505 11.4754C5.12505 11.4754 5.30005 11.5504 5.45005 11.7004L9.45005 15.7004L18.525 6.62539C18.675 6.47539 18.8542 6.40039 19.0625 6.40039C19.2709 6.40039 19.45 6.47539 19.6 6.62539C19.75 6.77539 19.825 6.95456 19.825 7.16289C19.825 7.37122 19.75 7.55039 19.6 7.70039L9.97505 17.3254C9.89172 17.4087 9.80838 17.4671 9.72505 17.5004C9.64172 17.5337 9.55005 17.5504 9.45005 17.5504Z" fill="white" stroke="white"/>
</svg>
