<svg width="40" height="40" viewBox="0 0 40 40" fill="none" xmlns="http://www.w3.org/2000/svg">
<circle opacity="0.2" cx="20" cy="20" r="20" fill="black"/>
<path d="M15.6363 24.2393L13.6545 26.1999C13.4848 26.3678 13.2878 26.4068 13.0636 26.3168C12.8394 26.2269 12.7272 26.062 12.7272 25.8222V13.8068C12.7272 13.519 12.8363 13.2672 13.0545 13.0513C13.2727 12.8355 13.5272 12.7275 13.8181 12.7275H26.1818C26.4727 12.7275 26.7272 12.8355 26.9454 13.0513C27.1636 13.2672 27.2727 13.519 27.2727 13.8068V23.1601C27.2727 23.4479 27.1636 23.6997 26.9454 23.9156C26.7272 24.1314 26.4727 24.2393 26.1818 24.2393H15.6363Z" fill="white"/>
</svg>
