<svg width="40" height="40" viewBox="0 0 40 40" fill="none" xmlns="http://www.w3.org/2000/svg">
<circle opacity="0.2" cx="20" cy="20" r="20" fill="black"/>
<path d="M21.7284 29.0557C21.7284 29.8676 20.8503 30.5264 19.7675 30.5264C18.6847 30.5264 17.8065 29.8676 17.8065 29.0557" stroke="white" stroke-width="1.3" stroke-linejoin="round"/>
<path d="M19.7676 11.4072V12.8779" stroke="white" stroke-width="1.3" stroke-linecap="round" stroke-linejoin="round"/>
<path d="M25.1602 18.2706C25.1602 15.2924 22.7457 12.8779 19.7675 12.8779C16.7893 12.8779 14.3749 15.2924 14.3749 18.2706V21.7023C14.3749 23.6632 13.3944 25.6242 11.9236 27.0949V28.0754H27.6114V27.0949C26.1406 25.6242 25.1602 23.6632 25.1602 21.7023V18.2706Z" stroke="white" stroke-width="1.3" stroke-linecap="round" stroke-linejoin="round"/>
<path d="M26.142 12.7812C27.0207 13.2899 27.6115 14.2403 27.6115 15.3287C27.6115 15.8624 27.4693 16.3631 27.2205 16.7945" stroke="white" stroke-width="1.3" stroke-linecap="round" stroke-linejoin="round"/>
<path d="M27.1249 10.5264C28.8689 11.4198 30.0626 13.2349 30.0626 15.3289C30.0626 16.2132 29.85 17.0472 29.4725 17.7838" stroke="white" stroke-width="1.3" stroke-linecap="round" stroke-linejoin="round"/>
<path d="M13.3944 12.7812C12.5157 13.2899 11.9249 14.2403 11.9249 15.3287C11.9249 15.8624 12.0671 16.3631 12.3159 16.7945" stroke="white" stroke-width="1.3" stroke-linecap="round" stroke-linejoin="round"/>
<path d="M12.4115 10.5264C10.6674 11.4198 9.47369 13.2349 9.47369 15.3289C9.47369 16.2132 9.68634 17.0472 10.0638 17.7838" stroke="white" stroke-width="1.3" stroke-linecap="round" stroke-linejoin="round"/>
</svg>
