<svg width="28" height="28" viewBox="0 0 28 28" fill="none" xmlns="http://www.w3.org/2000/svg">
<path d="M14.0002 20.2125C15.4002 20.2125 16.5766 19.7361 17.5293 18.7833C18.4821 17.8306 18.9585 16.6542 18.9585 15.2542C18.9585 13.8347 18.4821 12.6535 17.5293 11.7104C16.5766 10.7674 15.4002 10.2958 14.0002 10.2958C12.5807 10.2958 11.3995 10.7674 10.4564 11.7104C9.51336 12.6535 9.04183 13.8347 9.04183 15.2542C9.04183 16.6542 9.51336 17.8306 10.4564 18.7833C11.3995 19.7361 12.5807 20.2125 14.0002 20.2125ZM14.0002 18.4625C13.0668 18.4625 12.2988 18.1563 11.696 17.5438C11.0932 16.9313 10.7918 16.1681 10.7918 15.2542C10.7918 14.3208 11.0932 13.5528 11.696 12.95C12.2988 12.3472 13.0668 12.0458 14.0002 12.0458C14.9141 12.0458 15.6772 12.3472 16.2897 12.95C16.9022 13.5528 17.2085 14.3208 17.2085 15.2542C17.2085 16.1681 16.9022 16.9313 16.2897 17.5438C15.6772 18.1563 14.9141 18.4625 14.0002 18.4625ZM4.0835 24.5C3.61683 24.5 3.2085 24.325 2.8585 23.975C2.5085 23.625 2.3335 23.2167 2.3335 22.75V7.7875C2.3335 7.34028 2.5085 6.93681 2.8585 6.57708C3.2085 6.21736 3.61683 6.0375 4.0835 6.0375H8.371L9.97516 4.1125C10.1307 3.89861 10.3252 3.74306 10.5585 3.64583C10.7918 3.54861 11.0446 3.5 11.3168 3.5H16.6835C16.9557 3.5 17.2085 3.54861 17.4418 3.64583C17.6752 3.74306 17.8696 3.89861 18.0252 4.1125L19.6293 6.0375H23.9168C24.3641 6.0375 24.7675 6.21736 25.1272 6.57708C25.487 6.93681 25.6668 7.34028 25.6668 7.7875V22.75C25.6668 23.2167 25.487 23.625 25.1272 23.975C24.7675 24.325 24.3641 24.5 23.9168 24.5H4.0835Z" fill="white"/>
</svg>
