<svg width="16" height="16" viewBox="0 0 16 16" fill="none" xmlns="http://www.w3.org/2000/svg">
<path d="M8.66324 12.0748C8.56324 12.0748 8.47157 12.0581 8.38824 12.0248C8.3049 11.9915 8.22157 11.9331 8.13824 11.8498L3.18824 6.89981C3.0549 6.76648 2.9924 6.58731 3.00074 6.36231C3.00907 6.13731 3.0799 5.95815 3.21324 5.82481C3.3799 5.65815 3.55907 5.58731 3.75074 5.61231C3.9424 5.63731 4.11324 5.71648 4.26324 5.84981L8.66324 10.2498L13.0632 5.84981C13.1966 5.71648 13.3757 5.64148 13.6007 5.62481C13.8257 5.60815 14.0049 5.68315 14.1382 5.84981C14.3049 5.98315 14.3757 6.15815 14.3507 6.37481C14.3257 6.59148 14.2466 6.77481 14.1132 6.92481L9.18824 11.8498C9.1049 11.9331 9.02157 11.9915 8.93824 12.0248C8.8549 12.0581 8.76324 12.0748 8.66324 12.0748Z" fill="white"/>
</svg>
