<svg width="32" height="32" viewBox="0 0 32 32" fill="none" xmlns="http://www.w3.org/2000/svg">
<path d="M7.3335 28C6.7835 28 6.31266 27.8042 5.921 27.4125C5.52933 27.0208 5.3335 26.55 5.3335 26V13C5.3335 12.6833 5.40433 12.3833 5.546 12.1C5.68766 11.8167 5.8835 11.5833 6.1335 11.4L14.8002 4.9C14.9845 4.76667 15.1772 4.66667 15.3783 4.6C15.5794 4.53333 15.7889 4.5 16.0067 4.5C16.2246 4.5 16.4325 4.53333 16.6306 4.6C16.8287 4.66667 17.0186 4.76667 17.2002 4.9L25.8668 11.4C26.1168 11.5833 26.3127 11.8167 26.4543 12.1C26.596 12.3833 26.6668 12.6833 26.6668 13V26C26.6668 26.55 26.471 27.0208 26.0793 27.4125C25.6877 27.8042 25.2168 28 24.6668 28H18.6668V18.6667H13.3335V28H7.3335Z" fill="white"/>
</svg>
