<svg width="32" height="32" viewBox="0 0 32 32" fill="none" xmlns="http://www.w3.org/2000/svg">
<path d="M5 24C4.71667 24 4.47917 23.9036 4.2875 23.7108C4.09583 23.518 4 23.2791 4 22.9942C4 22.7092 4.09583 22.4722 4.2875 22.2833C4.47917 22.0944 4.71667 22 5 22H27C27.2833 22 27.5208 22.0964 27.7125 22.2892C27.9042 22.482 28 22.7209 28 23.0058C28 23.2908 27.9042 23.5278 27.7125 23.7167C27.5208 23.9056 27.2833 24 27 24H5ZM5 17C4.71667 17 4.47917 16.9036 4.2875 16.7108C4.09583 16.518 4 16.2791 4 15.9942C4 15.7092 4.09583 15.4722 4.2875 15.2833C4.47917 15.0944 4.71667 15 5 15H27C27.2833 15 27.5208 15.0964 27.7125 15.2892C27.9042 15.482 28 15.7209 28 16.0058C28 16.2908 27.9042 16.5278 27.7125 16.7167C27.5208 16.9056 27.2833 17 27 17H5ZM5 10C4.71667 10 4.47917 9.90361 4.2875 9.71083C4.09583 9.51803 4 9.27914 4 8.99417C4 8.70917 4.09583 8.47222 4.2875 8.28333C4.47917 8.09444 4.71667 8 5 8H27C27.2833 8 27.5208 8.09639 27.7125 8.28917C27.9042 8.48197 28 8.72086 28 9.00583C28 9.29083 27.9042 9.52778 27.7125 9.71667C27.5208 9.90556 27.2833 10 27 10H5Z" fill="white"/>
</svg>
