<svg width="24" height="24" viewBox="0 0 24 24" fill="none" xmlns="http://www.w3.org/2000/svg">
<path d="M12 22.0002C11.4333 22.0002 10.9542 21.8044 10.5625 21.4127C10.1708 21.021 9.975 20.5419 9.975 19.9752H14.025C14.025 20.5419 13.8292 21.021 13.4375 21.4127C13.0458 21.8044 12.5667 22.0002 12 22.0002ZM8.7 18.4252C8.48333 18.4252 8.30417 18.3544 8.1625 18.2127C8.02083 18.071 7.95 17.8919 7.95 17.6752C7.95 17.4585 8.02083 17.2794 8.1625 17.1377C8.30417 16.996 8.48333 16.9252 8.7 16.9252H15.3C15.5167 16.9252 15.6958 16.996 15.8375 17.1377C15.9792 17.2794 16.05 17.4585 16.05 17.6752C16.05 17.8919 15.9792 18.071 15.8375 18.2127C15.6958 18.3544 15.5167 18.4252 15.3 18.4252H8.7ZM8.075 15.4002C6.975 14.6835 6.10417 13.7877 5.4625 12.7127C4.82083 11.6377 4.5 10.4252 4.5 9.0752C4.5 7.04186 5.24167 5.28353 6.725 3.8002C8.20833 2.31686 9.96667 1.5752 12 1.5752C14.0333 1.5752 15.7917 2.31686 17.275 3.8002C18.7583 5.28353 19.5 7.04186 19.5 9.0752C19.5 10.4252 19.1833 11.6377 18.55 12.7127C17.9167 13.7877 17.0417 14.6835 15.925 15.4002H8.075Z" fill="white"/>
</svg>
