<svg width="24" height="24" viewBox="0 0 24 24" fill="none" xmlns="http://www.w3.org/2000/svg">
<path d="M15.375 19C14.9625 19 14.6094 18.8531 14.3156 18.5594C14.0219 18.2656 13.875 17.9125 13.875 17.5V6.5C13.875 6.0875 14.0219 5.73438 14.3156 5.44063C14.6094 5.14688 14.9625 5 15.375 5H16.75C17.1625 5 17.5156 5.14688 17.8094 5.44063C18.1031 5.73438 18.25 6.0875 18.25 6.5V17.5C18.25 17.9125 18.1031 18.2656 17.8094 18.5594C17.5156 18.8531 17.1625 19 16.75 19H15.375ZM7.25 19C6.8375 19 6.48438 18.8531 6.19063 18.5594C5.89688 18.2656 5.75 17.9125 5.75 17.5V6.5C5.75 6.0875 5.89688 5.73438 6.19063 5.44063C6.48438 5.14688 6.8375 5 7.25 5H8.625C9.0375 5 9.39063 5.14688 9.68438 5.44063C9.97813 5.73438 10.125 6.0875 10.125 6.5V17.5C10.125 17.9125 9.97813 18.2656 9.68438 18.5594C9.39063 18.8531 9.0375 19 8.625 19H7.25Z" fill="white"/>
</svg>
