<svg width="24" height="24" viewBox="0 0 24 24" fill="none" xmlns="http://www.w3.org/2000/svg">
<path d="M15.0751 11.9999C15.0751 12.0999 15.0584 12.1915 15.0251 12.2749C14.9917 12.3582 14.9334 12.4415 14.8501 12.5249L9.90006 17.4749C9.76672 17.6082 9.58756 17.6707 9.36256 17.6624C9.13756 17.654 8.95839 17.5832 8.82506 17.4499C8.65839 17.2832 8.58756 17.104 8.61256 16.9124C8.63756 16.7207 8.71672 16.5499 8.85006 16.3999L13.2501 11.9999L8.85006 7.59985C8.71672 7.46652 8.64172 7.28735 8.62506 7.06235C8.60839 6.83735 8.68339 6.65818 8.85006 6.52485C8.98339 6.35818 9.15839 6.28735 9.37506 6.31235C9.59172 6.33735 9.77506 6.41652 9.92506 6.54985L14.8501 11.4749C14.9334 11.5582 14.9917 11.6415 15.0251 11.7249C15.0584 11.8082 15.0751 11.8999 15.0751 11.9999Z" fill="white"/>
</svg>
