<svg width="28" height="28" viewBox="0 0 28 28" fill="none" xmlns="http://www.w3.org/2000/svg">
<circle cx="16" cy="14" r="8" fill="white"/>
<path d="M12.2791 16.6548L9.42075 13.7965C9.24575 13.6215 9.03186 13.534 8.77909 13.534C8.52631 13.534 8.3027 13.6312 8.10825 13.8257C7.93325 14.0007 7.84575 14.2145 7.84575 14.4673C7.84575 14.7201 7.93325 14.934 8.10825 15.109L11.6666 18.6965C11.8416 18.8715 12.0458 18.959 12.2791 18.959C12.5124 18.959 12.7166 18.8715 12.8916 18.6965L19.8624 11.7257C20.0569 11.5312 20.1541 11.3076 20.1541 11.0548C20.1541 10.802 20.0569 10.5784 19.8624 10.384C19.668 10.209 19.4395 10.1263 19.177 10.1361C18.9145 10.1458 18.6958 10.2382 18.5208 10.4132L12.2791 16.6548ZM13.9999 25.6673C12.4055 25.6673 10.8985 25.3611 9.47909 24.7486C8.05964 24.1361 6.82006 23.3 5.76034 22.2402C4.70061 21.1805 3.8645 19.9409 3.252 18.5215C2.6395 17.102 2.33325 15.5951 2.33325 14.0007C2.33325 12.3868 2.6395 10.8701 3.252 9.45065C3.8645 8.03121 4.70061 6.79648 5.76034 5.74648C6.82006 4.69648 8.05964 3.86523 9.47909 3.25273C10.8985 2.64023 12.4055 2.33398 13.9999 2.33398C15.6138 2.33398 17.1305 2.64023 18.5499 3.25273C19.9694 3.86523 21.2041 4.69648 22.2541 5.74648C23.3041 6.79648 24.1353 8.03121 24.7478 9.45065C25.3603 10.8701 25.6666 12.3868 25.6666 14.0007C25.6666 15.5951 25.3603 17.102 24.7478 18.5215C24.1353 19.9409 23.3041 21.1805 22.2541 22.2402C21.2041 23.3 19.9694 24.1361 18.5499 24.7486C17.1305 25.3611 15.6138 25.6673 13.9999 25.6673Z" fill="#3EC926"/>
</svg>
