<svg width="40" height="40" viewBox="0 0 40 40" fill="none" xmlns="http://www.w3.org/2000/svg">
<circle opacity="0.2" cx="20" cy="20" r="20" fill="black"/>
<path d="M18.4135 23.9331C18.6145 23.9331 18.7807 23.8674 18.9121 23.736C19.0435 23.6046 19.1092 23.4384 19.1092 23.2374V20.872H21.4746C21.6756 20.872 21.8418 20.8063 21.9732 20.6749C22.1046 20.5435 22.1703 20.3773 22.1703 20.1763C22.1703 19.9753 22.1046 19.8091 21.9732 19.6777C21.8418 19.5463 21.6756 19.4806 21.4746 19.4806H19.1092V17.1152C19.1092 16.9142 19.0435 16.748 18.9121 16.6166C18.7807 16.4852 18.6145 16.4195 18.4135 16.4195C18.2125 16.4195 18.0463 16.4852 17.9149 16.6166C17.7835 16.748 17.7178 16.9142 17.7178 17.1152V19.4806H15.3523C15.1514 19.4806 14.9852 19.5463 14.8537 19.6777C14.7223 19.8091 14.6566 19.9753 14.6566 20.1763C14.6566 20.3773 14.7223 20.5435 14.8537 20.6749C14.9852 20.8063 15.1514 20.872 15.3523 20.872H17.7178V23.2374C17.7178 23.4384 17.7835 23.6046 17.9149 23.736C18.0463 23.8674 18.2125 23.9331 18.4135 23.9331ZM12.3376 27.6436C11.9665 27.6436 11.6419 27.5045 11.3636 27.2262C11.0853 26.9479 10.9462 26.6232 10.9462 26.2522V14.1932C10.9462 13.8221 11.0853 13.4975 11.3636 13.2192C11.6419 12.9409 11.9665 12.8018 12.3376 12.8018H24.3966C24.7676 12.8018 25.0923 12.9409 25.3706 13.2192C25.6489 13.4975 25.788 13.8221 25.788 14.1932V19.1791L28.8955 16.0716C29.0192 15.9479 29.1506 15.917 29.2898 15.9788C29.4289 16.0407 29.4985 16.1489 29.4985 16.3035V24.1419C29.4985 24.2965 29.4289 24.4047 29.2898 24.4665C29.1506 24.5284 29.0192 24.4974 28.8955 24.3738L25.788 21.2663V26.2522C25.788 26.6232 25.6489 26.9479 25.3706 27.2262C25.0923 27.5045 24.7676 27.6436 24.3966 27.6436H12.3376Z" fill="white"/>
</svg>
